<mxfile host="Electron" agent="Mozilla/5.0 (Windows NT 10.0; Win64; x64) AppleWebKit/537.36 (KHTML, like Gecko) draw.io/25.0.2 Chrome/128.0.6613.186 Electron/32.2.5 Safari/537.36" version="25.0.2">
  <diagram name="Page-1" id="TULl6pyBpN5IUs6AgNsH">
    <mxGraphModel dx="955" dy="695" grid="1" gridSize="10" guides="1" tooltips="1" connect="1" arrows="1" fold="1" page="1" pageScale="1" pageWidth="850" pageHeight="1100" math="0" shadow="0">
      <root>
        <mxCell id="0" />
        <mxCell id="1" parent="0" />
        <mxCell id="0IzMQxdubGWwQOAFh3HP-1" value="" style="shape=cube;whiteSpace=wrap;html=1;boundedLbl=1;backgroundOutline=1;darkOpacity=0.05;darkOpacity2=0.1;size=110;flipH=1;" vertex="1" parent="1">
          <mxGeometry x="32" y="160" width="120" height="400" as="geometry" />
        </mxCell>
        <mxCell id="0IzMQxdubGWwQOAFh3HP-2" value="" style="shape=cube;whiteSpace=wrap;html=1;boundedLbl=1;backgroundOutline=1;darkOpacity=0.05;darkOpacity2=0.1;size=110;flipH=1;" vertex="1" parent="1">
          <mxGeometry x="52" y="160" width="120" height="400" as="geometry" />
        </mxCell>
        <mxCell id="0IzMQxdubGWwQOAFh3HP-4" value="" style="shape=cube;whiteSpace=wrap;html=1;boundedLbl=1;backgroundOutline=1;darkOpacity=0.05;darkOpacity2=0.1;size=80;flipH=1;" vertex="1" parent="1">
          <mxGeometry x="132" y="210" width="90" height="300" as="geometry" />
        </mxCell>
        <mxCell id="0IzMQxdubGWwQOAFh3HP-5" value="" style="shape=cube;whiteSpace=wrap;html=1;boundedLbl=1;backgroundOutline=1;darkOpacity=0.05;darkOpacity2=0.1;size=80;flipH=1;" vertex="1" parent="1">
          <mxGeometry x="152" y="210" width="90" height="300" as="geometry" />
        </mxCell>
        <mxCell id="0IzMQxdubGWwQOAFh3HP-6" value="" style="shape=cube;whiteSpace=wrap;html=1;boundedLbl=1;backgroundOutline=1;darkOpacity=0.05;darkOpacity2=0.1;size=60;flipH=1;" vertex="1" parent="1">
          <mxGeometry x="222" y="250" width="70" height="220" as="geometry" />
        </mxCell>
        <mxCell id="0IzMQxdubGWwQOAFh3HP-7" value="" style="shape=cube;whiteSpace=wrap;html=1;boundedLbl=1;backgroundOutline=1;darkOpacity=0.05;darkOpacity2=0.1;size=60;flipH=1;" vertex="1" parent="1">
          <mxGeometry x="242" y="250" width="70" height="220" as="geometry" />
        </mxCell>
        <mxCell id="0IzMQxdubGWwQOAFh3HP-8" value="" style="shape=cube;whiteSpace=wrap;html=1;boundedLbl=1;backgroundOutline=1;darkOpacity=0.05;darkOpacity2=0.1;size=60;flipH=1;" vertex="1" parent="1">
          <mxGeometry x="262" y="250" width="70" height="220" as="geometry" />
        </mxCell>
        <mxCell id="0IzMQxdubGWwQOAFh3HP-9" value="" style="shape=cube;whiteSpace=wrap;html=1;boundedLbl=1;backgroundOutline=1;darkOpacity=0.05;darkOpacity2=0.1;size=40;flipH=1;" vertex="1" parent="1">
          <mxGeometry x="332" y="293" width="50" height="140" as="geometry" />
        </mxCell>
        <mxCell id="0IzMQxdubGWwQOAFh3HP-10" value="" style="shape=cube;whiteSpace=wrap;html=1;boundedLbl=1;backgroundOutline=1;darkOpacity=0.05;darkOpacity2=0.1;size=40;flipH=1;" vertex="1" parent="1">
          <mxGeometry x="352" y="293" width="50" height="140" as="geometry" />
        </mxCell>
        <mxCell id="0IzMQxdubGWwQOAFh3HP-11" value="" style="shape=cube;whiteSpace=wrap;html=1;boundedLbl=1;backgroundOutline=1;darkOpacity=0.05;darkOpacity2=0.1;size=40;flipH=1;" vertex="1" parent="1">
          <mxGeometry x="372" y="293" width="50" height="140" as="geometry" />
        </mxCell>
        <mxCell id="0IzMQxdubGWwQOAFh3HP-12" value="" style="shape=cube;whiteSpace=wrap;html=1;boundedLbl=1;backgroundOutline=1;darkOpacity=0.05;darkOpacity2=0.1;size=40;flipH=1;" vertex="1" parent="1">
          <mxGeometry x="392" y="293" width="50" height="140" as="geometry" />
        </mxCell>
        <mxCell id="0IzMQxdubGWwQOAFh3HP-22" value="" style="shape=parallelogram;perimeter=parallelogramPerimeter;whiteSpace=wrap;html=1;fixedSize=1;size=10;flipH=0;flipV=1;direction=south;" vertex="1" parent="1">
          <mxGeometry x="492" y="222" width="30" height="45" as="geometry" />
        </mxCell>
        <mxCell id="0IzMQxdubGWwQOAFh3HP-23" value="" style="shape=parallelogram;perimeter=parallelogramPerimeter;whiteSpace=wrap;html=1;fixedSize=1;size=10;flipH=0;flipV=1;direction=north;" vertex="1" parent="1">
          <mxGeometry x="492" y="177" width="30" height="45" as="geometry" />
        </mxCell>
        <mxCell id="0IzMQxdubGWwQOAFh3HP-87" style="edgeStyle=none;shape=connector;rounded=0;orthogonalLoop=1;jettySize=auto;html=1;exitX=1;exitY=0.5;exitDx=0;exitDy=0;entryX=0;entryY=0.5;entryDx=0;entryDy=0;strokeColor=default;align=center;verticalAlign=middle;fontFamily=Helvetica;fontSize=11;fontColor=default;labelBackgroundColor=default;endArrow=none;" edge="1" parent="1" source="0IzMQxdubGWwQOAFh3HP-25" target="0IzMQxdubGWwQOAFh3HP-34">
          <mxGeometry relative="1" as="geometry" />
        </mxCell>
        <mxCell id="0IzMQxdubGWwQOAFh3HP-88" style="edgeStyle=none;shape=connector;rounded=0;orthogonalLoop=1;jettySize=auto;html=1;exitX=1;exitY=0.5;exitDx=0;exitDy=0;entryX=0;entryY=0.5;entryDx=0;entryDy=0;strokeColor=default;align=center;verticalAlign=middle;fontFamily=Helvetica;fontSize=11;fontColor=default;labelBackgroundColor=default;endArrow=none;" edge="1" parent="1" source="0IzMQxdubGWwQOAFh3HP-25" target="0IzMQxdubGWwQOAFh3HP-35">
          <mxGeometry relative="1" as="geometry" />
        </mxCell>
        <mxCell id="0IzMQxdubGWwQOAFh3HP-89" style="edgeStyle=none;shape=connector;rounded=0;orthogonalLoop=1;jettySize=auto;html=1;exitX=1;exitY=0.5;exitDx=0;exitDy=0;entryX=0;entryY=0.5;entryDx=0;entryDy=0;strokeColor=default;align=center;verticalAlign=middle;fontFamily=Helvetica;fontSize=11;fontColor=default;labelBackgroundColor=default;endArrow=none;" edge="1" parent="1" source="0IzMQxdubGWwQOAFh3HP-25" target="0IzMQxdubGWwQOAFh3HP-36">
          <mxGeometry relative="1" as="geometry" />
        </mxCell>
        <mxCell id="0IzMQxdubGWwQOAFh3HP-25" value="" style="ellipse;whiteSpace=wrap;html=1;aspect=fixed;" vertex="1" parent="1">
          <mxGeometry x="582" y="188.25" width="30" height="30" as="geometry" />
        </mxCell>
        <mxCell id="0IzMQxdubGWwQOAFh3HP-90" style="edgeStyle=none;shape=connector;rounded=0;orthogonalLoop=1;jettySize=auto;html=1;exitX=1;exitY=0.5;exitDx=0;exitDy=0;entryX=0;entryY=0.5;entryDx=0;entryDy=0;strokeColor=default;align=center;verticalAlign=middle;fontFamily=Helvetica;fontSize=11;fontColor=default;labelBackgroundColor=default;endArrow=none;" edge="1" parent="1" source="0IzMQxdubGWwQOAFh3HP-26" target="0IzMQxdubGWwQOAFh3HP-34">
          <mxGeometry relative="1" as="geometry" />
        </mxCell>
        <mxCell id="0IzMQxdubGWwQOAFh3HP-91" style="edgeStyle=none;shape=connector;rounded=0;orthogonalLoop=1;jettySize=auto;html=1;exitX=1;exitY=0.5;exitDx=0;exitDy=0;entryX=0;entryY=0.5;entryDx=0;entryDy=0;strokeColor=default;align=center;verticalAlign=middle;fontFamily=Helvetica;fontSize=11;fontColor=default;labelBackgroundColor=default;endArrow=none;" edge="1" parent="1" source="0IzMQxdubGWwQOAFh3HP-26" target="0IzMQxdubGWwQOAFh3HP-35">
          <mxGeometry relative="1" as="geometry" />
        </mxCell>
        <mxCell id="0IzMQxdubGWwQOAFh3HP-92" style="edgeStyle=none;shape=connector;rounded=0;orthogonalLoop=1;jettySize=auto;html=1;exitX=1;exitY=0.5;exitDx=0;exitDy=0;entryX=0;entryY=0.5;entryDx=0;entryDy=0;strokeColor=default;align=center;verticalAlign=middle;fontFamily=Helvetica;fontSize=11;fontColor=default;labelBackgroundColor=default;endArrow=none;" edge="1" parent="1" source="0IzMQxdubGWwQOAFh3HP-26" target="0IzMQxdubGWwQOAFh3HP-36">
          <mxGeometry relative="1" as="geometry" />
        </mxCell>
        <mxCell id="0IzMQxdubGWwQOAFh3HP-26" value="" style="ellipse;whiteSpace=wrap;html=1;aspect=fixed;" vertex="1" parent="1">
          <mxGeometry x="582" y="233.25" width="30" height="30" as="geometry" />
        </mxCell>
        <mxCell id="0IzMQxdubGWwQOAFh3HP-111" style="edgeStyle=none;shape=connector;rounded=0;orthogonalLoop=1;jettySize=auto;html=1;exitX=1;exitY=0.5;exitDx=0;exitDy=0;entryX=0;entryY=0.5;entryDx=0;entryDy=0;strokeColor=default;align=center;verticalAlign=middle;fontFamily=Helvetica;fontSize=11;fontColor=default;labelBackgroundColor=default;endArrow=none;" edge="1" parent="1" source="0IzMQxdubGWwQOAFh3HP-33" target="0IzMQxdubGWwQOAFh3HP-41">
          <mxGeometry relative="1" as="geometry" />
        </mxCell>
        <mxCell id="0IzMQxdubGWwQOAFh3HP-112" style="edgeStyle=none;shape=connector;rounded=0;orthogonalLoop=1;jettySize=auto;html=1;exitX=1;exitY=0.5;exitDx=0;exitDy=0;entryX=0;entryY=0.5;entryDx=0;entryDy=0;strokeColor=default;align=center;verticalAlign=middle;fontFamily=Helvetica;fontSize=11;fontColor=default;labelBackgroundColor=default;endArrow=none;" edge="1" parent="1" source="0IzMQxdubGWwQOAFh3HP-33" target="0IzMQxdubGWwQOAFh3HP-38">
          <mxGeometry relative="1" as="geometry" />
        </mxCell>
        <mxCell id="0IzMQxdubGWwQOAFh3HP-113" style="edgeStyle=none;shape=connector;rounded=0;orthogonalLoop=1;jettySize=auto;html=1;exitX=1;exitY=0.5;exitDx=0;exitDy=0;entryX=0;entryY=0.5;entryDx=0;entryDy=0;strokeColor=default;align=center;verticalAlign=middle;fontFamily=Helvetica;fontSize=11;fontColor=default;labelBackgroundColor=default;endArrow=none;" edge="1" parent="1" source="0IzMQxdubGWwQOAFh3HP-33" target="0IzMQxdubGWwQOAFh3HP-39">
          <mxGeometry relative="1" as="geometry" />
        </mxCell>
        <mxCell id="0IzMQxdubGWwQOAFh3HP-33" value="" style="ellipse;whiteSpace=wrap;html=1;aspect=fixed;" vertex="1" parent="1">
          <mxGeometry x="672" y="278.25" width="30" height="30" as="geometry" />
        </mxCell>
        <mxCell id="0IzMQxdubGWwQOAFh3HP-114" style="edgeStyle=none;shape=connector;rounded=0;orthogonalLoop=1;jettySize=auto;html=1;exitX=1;exitY=0.5;exitDx=0;exitDy=0;entryX=0;entryY=0.5;entryDx=0;entryDy=0;strokeColor=default;align=center;verticalAlign=middle;fontFamily=Helvetica;fontSize=11;fontColor=default;labelBackgroundColor=default;endArrow=none;" edge="1" parent="1" source="0IzMQxdubGWwQOAFh3HP-34" target="0IzMQxdubGWwQOAFh3HP-41">
          <mxGeometry relative="1" as="geometry" />
        </mxCell>
        <mxCell id="0IzMQxdubGWwQOAFh3HP-115" style="edgeStyle=none;shape=connector;rounded=0;orthogonalLoop=1;jettySize=auto;html=1;exitX=1;exitY=0.5;exitDx=0;exitDy=0;entryX=0;entryY=0.5;entryDx=0;entryDy=0;strokeColor=default;align=center;verticalAlign=middle;fontFamily=Helvetica;fontSize=11;fontColor=default;labelBackgroundColor=default;endArrow=none;" edge="1" parent="1" source="0IzMQxdubGWwQOAFh3HP-34" target="0IzMQxdubGWwQOAFh3HP-38">
          <mxGeometry relative="1" as="geometry" />
        </mxCell>
        <mxCell id="0IzMQxdubGWwQOAFh3HP-116" style="edgeStyle=none;shape=connector;rounded=0;orthogonalLoop=1;jettySize=auto;html=1;exitX=1;exitY=0.5;exitDx=0;exitDy=0;entryX=0;entryY=0.5;entryDx=0;entryDy=0;strokeColor=default;align=center;verticalAlign=middle;fontFamily=Helvetica;fontSize=11;fontColor=default;labelBackgroundColor=default;endArrow=none;" edge="1" parent="1" source="0IzMQxdubGWwQOAFh3HP-34" target="0IzMQxdubGWwQOAFh3HP-39">
          <mxGeometry relative="1" as="geometry" />
        </mxCell>
        <mxCell id="0IzMQxdubGWwQOAFh3HP-34" value="" style="ellipse;whiteSpace=wrap;html=1;aspect=fixed;" vertex="1" parent="1">
          <mxGeometry x="672" y="323.25" width="30" height="30" as="geometry" />
        </mxCell>
        <mxCell id="0IzMQxdubGWwQOAFh3HP-117" style="edgeStyle=none;shape=connector;rounded=0;orthogonalLoop=1;jettySize=auto;html=1;exitX=1;exitY=0.5;exitDx=0;exitDy=0;entryX=0;entryY=0.5;entryDx=0;entryDy=0;strokeColor=default;align=center;verticalAlign=middle;fontFamily=Helvetica;fontSize=11;fontColor=default;labelBackgroundColor=default;endArrow=none;" edge="1" parent="1" source="0IzMQxdubGWwQOAFh3HP-35" target="0IzMQxdubGWwQOAFh3HP-41">
          <mxGeometry relative="1" as="geometry" />
        </mxCell>
        <mxCell id="0IzMQxdubGWwQOAFh3HP-118" style="edgeStyle=none;shape=connector;rounded=0;orthogonalLoop=1;jettySize=auto;html=1;exitX=1;exitY=0.5;exitDx=0;exitDy=0;entryX=0;entryY=0.5;entryDx=0;entryDy=0;strokeColor=default;align=center;verticalAlign=middle;fontFamily=Helvetica;fontSize=11;fontColor=default;labelBackgroundColor=default;endArrow=none;" edge="1" parent="1" source="0IzMQxdubGWwQOAFh3HP-35" target="0IzMQxdubGWwQOAFh3HP-38">
          <mxGeometry relative="1" as="geometry" />
        </mxCell>
        <mxCell id="0IzMQxdubGWwQOAFh3HP-119" style="edgeStyle=none;shape=connector;rounded=0;orthogonalLoop=1;jettySize=auto;html=1;exitX=1;exitY=0.5;exitDx=0;exitDy=0;entryX=0;entryY=0.5;entryDx=0;entryDy=0;strokeColor=default;align=center;verticalAlign=middle;fontFamily=Helvetica;fontSize=11;fontColor=default;labelBackgroundColor=default;endArrow=none;" edge="1" parent="1" source="0IzMQxdubGWwQOAFh3HP-35" target="0IzMQxdubGWwQOAFh3HP-39">
          <mxGeometry relative="1" as="geometry" />
        </mxCell>
        <mxCell id="0IzMQxdubGWwQOAFh3HP-35" value="" style="ellipse;whiteSpace=wrap;html=1;aspect=fixed;" vertex="1" parent="1">
          <mxGeometry x="672" y="368.25" width="30" height="30" as="geometry" />
        </mxCell>
        <mxCell id="0IzMQxdubGWwQOAFh3HP-120" style="edgeStyle=none;shape=connector;rounded=0;orthogonalLoop=1;jettySize=auto;html=1;exitX=1;exitY=0.5;exitDx=0;exitDy=0;entryX=0;entryY=0.5;entryDx=0;entryDy=0;strokeColor=default;align=center;verticalAlign=middle;fontFamily=Helvetica;fontSize=11;fontColor=default;labelBackgroundColor=default;endArrow=none;" edge="1" parent="1" source="0IzMQxdubGWwQOAFh3HP-36" target="0IzMQxdubGWwQOAFh3HP-41">
          <mxGeometry relative="1" as="geometry" />
        </mxCell>
        <mxCell id="0IzMQxdubGWwQOAFh3HP-121" style="edgeStyle=none;shape=connector;rounded=0;orthogonalLoop=1;jettySize=auto;html=1;exitX=1;exitY=0.5;exitDx=0;exitDy=0;entryX=0;entryY=0.5;entryDx=0;entryDy=0;strokeColor=default;align=center;verticalAlign=middle;fontFamily=Helvetica;fontSize=11;fontColor=default;labelBackgroundColor=default;endArrow=none;" edge="1" parent="1" source="0IzMQxdubGWwQOAFh3HP-36" target="0IzMQxdubGWwQOAFh3HP-38">
          <mxGeometry relative="1" as="geometry" />
        </mxCell>
        <mxCell id="0IzMQxdubGWwQOAFh3HP-122" style="edgeStyle=none;shape=connector;rounded=0;orthogonalLoop=1;jettySize=auto;html=1;exitX=1;exitY=0.5;exitDx=0;exitDy=0;entryX=0;entryY=0.5;entryDx=0;entryDy=0;strokeColor=default;align=center;verticalAlign=middle;fontFamily=Helvetica;fontSize=11;fontColor=default;labelBackgroundColor=default;endArrow=none;" edge="1" parent="1" source="0IzMQxdubGWwQOAFh3HP-36" target="0IzMQxdubGWwQOAFh3HP-39">
          <mxGeometry relative="1" as="geometry" />
        </mxCell>
        <mxCell id="0IzMQxdubGWwQOAFh3HP-36" value="" style="ellipse;whiteSpace=wrap;html=1;aspect=fixed;" vertex="1" parent="1">
          <mxGeometry x="672" y="413.25" width="30" height="30" as="geometry" />
        </mxCell>
        <mxCell id="0IzMQxdubGWwQOAFh3HP-38" value="" style="ellipse;whiteSpace=wrap;html=1;aspect=fixed;" vertex="1" parent="1">
          <mxGeometry x="752" y="343.63" width="30" height="30" as="geometry" />
        </mxCell>
        <mxCell id="0IzMQxdubGWwQOAFh3HP-39" value="" style="ellipse;whiteSpace=wrap;html=1;aspect=fixed;" vertex="1" parent="1">
          <mxGeometry x="752" y="383.25" width="30" height="30" as="geometry" />
        </mxCell>
        <mxCell id="0IzMQxdubGWwQOAFh3HP-41" value="" style="ellipse;whiteSpace=wrap;html=1;aspect=fixed;" vertex="1" parent="1">
          <mxGeometry x="752" y="302.88" width="30" height="30" as="geometry" />
        </mxCell>
        <mxCell id="0IzMQxdubGWwQOAFh3HP-49" value="" style="endArrow=none;html=1;rounded=0;exitX=0.382;exitY=0.991;exitDx=0;exitDy=0;exitPerimeter=0;entryX=0;entryY=0.5;entryDx=0;entryDy=0;endFill=0;" edge="1" parent="1" source="0IzMQxdubGWwQOAFh3HP-23" target="0IzMQxdubGWwQOAFh3HP-25">
          <mxGeometry width="50" height="50" relative="1" as="geometry">
            <mxPoint x="472" y="287" as="sourcePoint" />
            <mxPoint x="522" y="237" as="targetPoint" />
          </mxGeometry>
        </mxCell>
        <mxCell id="0IzMQxdubGWwQOAFh3HP-50" value="" style="endArrow=none;html=1;rounded=0;exitX=0.601;exitY=-0.009;exitDx=0;exitDy=0;exitPerimeter=0;entryX=0;entryY=0.5;entryDx=0;entryDy=0;endFill=0;" edge="1" parent="1" source="0IzMQxdubGWwQOAFh3HP-22" target="0IzMQxdubGWwQOAFh3HP-26">
          <mxGeometry width="50" height="50" relative="1" as="geometry">
            <mxPoint x="532" y="204" as="sourcePoint" />
            <mxPoint x="592" y="213" as="targetPoint" />
          </mxGeometry>
        </mxCell>
        <mxCell id="0IzMQxdubGWwQOAFh3HP-51" value="" style="shape=parallelogram;perimeter=parallelogramPerimeter;whiteSpace=wrap;html=1;fixedSize=1;size=10;flipH=0;flipV=1;direction=south;" vertex="1" parent="1">
          <mxGeometry x="492" y="312" width="30" height="45" as="geometry" />
        </mxCell>
        <mxCell id="0IzMQxdubGWwQOAFh3HP-52" value="" style="shape=parallelogram;perimeter=parallelogramPerimeter;whiteSpace=wrap;html=1;fixedSize=1;size=10;flipH=0;flipV=1;direction=north;" vertex="1" parent="1">
          <mxGeometry x="492" y="267" width="30" height="45" as="geometry" />
        </mxCell>
        <mxCell id="0IzMQxdubGWwQOAFh3HP-94" style="edgeStyle=none;shape=connector;rounded=0;orthogonalLoop=1;jettySize=auto;html=1;exitX=1;exitY=0.5;exitDx=0;exitDy=0;entryX=0;entryY=0.5;entryDx=0;entryDy=0;strokeColor=default;align=center;verticalAlign=middle;fontFamily=Helvetica;fontSize=11;fontColor=default;labelBackgroundColor=default;endArrow=none;" edge="1" parent="1" source="0IzMQxdubGWwQOAFh3HP-53" target="0IzMQxdubGWwQOAFh3HP-35">
          <mxGeometry relative="1" as="geometry" />
        </mxCell>
        <mxCell id="0IzMQxdubGWwQOAFh3HP-95" style="edgeStyle=none;shape=connector;rounded=0;orthogonalLoop=1;jettySize=auto;html=1;exitX=1;exitY=0.5;exitDx=0;exitDy=0;entryX=0;entryY=0.5;entryDx=0;entryDy=0;strokeColor=default;align=center;verticalAlign=middle;fontFamily=Helvetica;fontSize=11;fontColor=default;labelBackgroundColor=default;endArrow=none;" edge="1" parent="1" source="0IzMQxdubGWwQOAFh3HP-53" target="0IzMQxdubGWwQOAFh3HP-36">
          <mxGeometry relative="1" as="geometry" />
        </mxCell>
        <mxCell id="0IzMQxdubGWwQOAFh3HP-53" value="" style="ellipse;whiteSpace=wrap;html=1;aspect=fixed;" vertex="1" parent="1">
          <mxGeometry x="582" y="278.25" width="30" height="30" as="geometry" />
        </mxCell>
        <mxCell id="0IzMQxdubGWwQOAFh3HP-78" style="edgeStyle=none;shape=connector;rounded=0;orthogonalLoop=1;jettySize=auto;html=1;exitX=1;exitY=0.5;exitDx=0;exitDy=0;entryX=0;entryY=0.5;entryDx=0;entryDy=0;strokeColor=default;align=center;verticalAlign=middle;fontFamily=Helvetica;fontSize=11;fontColor=default;labelBackgroundColor=default;endArrow=none;" edge="1" parent="1" source="0IzMQxdubGWwQOAFh3HP-54" target="0IzMQxdubGWwQOAFh3HP-33">
          <mxGeometry relative="1" as="geometry" />
        </mxCell>
        <mxCell id="0IzMQxdubGWwQOAFh3HP-96" style="edgeStyle=none;shape=connector;rounded=0;orthogonalLoop=1;jettySize=auto;html=1;exitX=1;exitY=0.5;exitDx=0;exitDy=0;entryX=0;entryY=0.5;entryDx=0;entryDy=0;strokeColor=default;align=center;verticalAlign=middle;fontFamily=Helvetica;fontSize=11;fontColor=default;labelBackgroundColor=default;endArrow=none;" edge="1" parent="1" source="0IzMQxdubGWwQOAFh3HP-54" target="0IzMQxdubGWwQOAFh3HP-34">
          <mxGeometry relative="1" as="geometry" />
        </mxCell>
        <mxCell id="0IzMQxdubGWwQOAFh3HP-97" style="edgeStyle=none;shape=connector;rounded=0;orthogonalLoop=1;jettySize=auto;html=1;exitX=1;exitY=0.5;exitDx=0;exitDy=0;entryX=0;entryY=0.5;entryDx=0;entryDy=0;strokeColor=default;align=center;verticalAlign=middle;fontFamily=Helvetica;fontSize=11;fontColor=default;labelBackgroundColor=default;endArrow=none;" edge="1" parent="1" source="0IzMQxdubGWwQOAFh3HP-54" target="0IzMQxdubGWwQOAFh3HP-35">
          <mxGeometry relative="1" as="geometry" />
        </mxCell>
        <mxCell id="0IzMQxdubGWwQOAFh3HP-98" style="edgeStyle=none;shape=connector;rounded=0;orthogonalLoop=1;jettySize=auto;html=1;exitX=1;exitY=0.5;exitDx=0;exitDy=0;entryX=0;entryY=0.5;entryDx=0;entryDy=0;strokeColor=default;align=center;verticalAlign=middle;fontFamily=Helvetica;fontSize=11;fontColor=default;labelBackgroundColor=default;endArrow=none;" edge="1" parent="1" source="0IzMQxdubGWwQOAFh3HP-54" target="0IzMQxdubGWwQOAFh3HP-36">
          <mxGeometry relative="1" as="geometry" />
        </mxCell>
        <mxCell id="0IzMQxdubGWwQOAFh3HP-54" value="" style="ellipse;whiteSpace=wrap;html=1;aspect=fixed;" vertex="1" parent="1">
          <mxGeometry x="582" y="323.25" width="30" height="30" as="geometry" />
        </mxCell>
        <mxCell id="0IzMQxdubGWwQOAFh3HP-55" value="" style="endArrow=none;html=1;rounded=0;exitX=0.382;exitY=0.991;exitDx=0;exitDy=0;exitPerimeter=0;entryX=0;entryY=0.5;entryDx=0;entryDy=0;endFill=0;" edge="1" parent="1" source="0IzMQxdubGWwQOAFh3HP-52" target="0IzMQxdubGWwQOAFh3HP-53">
          <mxGeometry width="50" height="50" relative="1" as="geometry">
            <mxPoint x="472" y="377" as="sourcePoint" />
            <mxPoint x="522" y="327" as="targetPoint" />
          </mxGeometry>
        </mxCell>
        <mxCell id="0IzMQxdubGWwQOAFh3HP-56" value="" style="endArrow=none;html=1;rounded=0;exitX=0.601;exitY=-0.009;exitDx=0;exitDy=0;exitPerimeter=0;entryX=0;entryY=0.5;entryDx=0;entryDy=0;endFill=0;" edge="1" parent="1" source="0IzMQxdubGWwQOAFh3HP-51" target="0IzMQxdubGWwQOAFh3HP-54">
          <mxGeometry width="50" height="50" relative="1" as="geometry">
            <mxPoint x="532" y="294" as="sourcePoint" />
            <mxPoint x="592" y="303" as="targetPoint" />
          </mxGeometry>
        </mxCell>
        <mxCell id="0IzMQxdubGWwQOAFh3HP-57" value="" style="shape=parallelogram;perimeter=parallelogramPerimeter;whiteSpace=wrap;html=1;fixedSize=1;size=10;flipH=0;flipV=1;direction=south;" vertex="1" parent="1">
          <mxGeometry x="492" y="402" width="30" height="45" as="geometry" />
        </mxCell>
        <mxCell id="0IzMQxdubGWwQOAFh3HP-58" value="" style="shape=parallelogram;perimeter=parallelogramPerimeter;whiteSpace=wrap;html=1;fixedSize=1;size=10;flipH=0;flipV=1;direction=north;" vertex="1" parent="1">
          <mxGeometry x="492" y="357" width="30" height="45" as="geometry" />
        </mxCell>
        <mxCell id="0IzMQxdubGWwQOAFh3HP-79" style="edgeStyle=none;shape=connector;rounded=0;orthogonalLoop=1;jettySize=auto;html=1;exitX=1;exitY=0.5;exitDx=0;exitDy=0;strokeColor=default;align=center;verticalAlign=middle;fontFamily=Helvetica;fontSize=11;fontColor=default;labelBackgroundColor=default;endArrow=none;entryX=0;entryY=0.5;entryDx=0;entryDy=0;" edge="1" parent="1" source="0IzMQxdubGWwQOAFh3HP-59" target="0IzMQxdubGWwQOAFh3HP-33">
          <mxGeometry relative="1" as="geometry">
            <mxPoint x="672" y="293" as="targetPoint" />
          </mxGeometry>
        </mxCell>
        <mxCell id="0IzMQxdubGWwQOAFh3HP-99" style="edgeStyle=none;shape=connector;rounded=0;orthogonalLoop=1;jettySize=auto;html=1;exitX=1;exitY=0.5;exitDx=0;exitDy=0;entryX=0;entryY=0.5;entryDx=0;entryDy=0;strokeColor=default;align=center;verticalAlign=middle;fontFamily=Helvetica;fontSize=11;fontColor=default;labelBackgroundColor=default;endArrow=none;" edge="1" parent="1" source="0IzMQxdubGWwQOAFh3HP-59" target="0IzMQxdubGWwQOAFh3HP-34">
          <mxGeometry relative="1" as="geometry" />
        </mxCell>
        <mxCell id="0IzMQxdubGWwQOAFh3HP-100" style="edgeStyle=none;shape=connector;rounded=0;orthogonalLoop=1;jettySize=auto;html=1;exitX=1;exitY=0.5;exitDx=0;exitDy=0;entryX=0;entryY=0.5;entryDx=0;entryDy=0;strokeColor=default;align=center;verticalAlign=middle;fontFamily=Helvetica;fontSize=11;fontColor=default;labelBackgroundColor=default;endArrow=none;" edge="1" parent="1" source="0IzMQxdubGWwQOAFh3HP-59" target="0IzMQxdubGWwQOAFh3HP-35">
          <mxGeometry relative="1" as="geometry" />
        </mxCell>
        <mxCell id="0IzMQxdubGWwQOAFh3HP-101" style="edgeStyle=none;shape=connector;rounded=0;orthogonalLoop=1;jettySize=auto;html=1;exitX=1;exitY=0.5;exitDx=0;exitDy=0;entryX=0;entryY=0.5;entryDx=0;entryDy=0;strokeColor=default;align=center;verticalAlign=middle;fontFamily=Helvetica;fontSize=11;fontColor=default;labelBackgroundColor=default;endArrow=none;" edge="1" parent="1" source="0IzMQxdubGWwQOAFh3HP-59" target="0IzMQxdubGWwQOAFh3HP-36">
          <mxGeometry relative="1" as="geometry" />
        </mxCell>
        <mxCell id="0IzMQxdubGWwQOAFh3HP-59" value="" style="ellipse;whiteSpace=wrap;html=1;aspect=fixed;" vertex="1" parent="1">
          <mxGeometry x="582" y="368.25" width="30" height="30" as="geometry" />
        </mxCell>
        <mxCell id="0IzMQxdubGWwQOAFh3HP-102" style="edgeStyle=none;shape=connector;rounded=0;orthogonalLoop=1;jettySize=auto;html=1;exitX=1;exitY=0.5;exitDx=0;exitDy=0;entryX=0;entryY=0.5;entryDx=0;entryDy=0;strokeColor=default;align=center;verticalAlign=middle;fontFamily=Helvetica;fontSize=11;fontColor=default;labelBackgroundColor=default;endArrow=none;" edge="1" parent="1" source="0IzMQxdubGWwQOAFh3HP-60" target="0IzMQxdubGWwQOAFh3HP-34">
          <mxGeometry relative="1" as="geometry" />
        </mxCell>
        <mxCell id="0IzMQxdubGWwQOAFh3HP-103" style="edgeStyle=none;shape=connector;rounded=0;orthogonalLoop=1;jettySize=auto;html=1;exitX=1;exitY=0.5;exitDx=0;exitDy=0;entryX=0;entryY=0.5;entryDx=0;entryDy=0;strokeColor=default;align=center;verticalAlign=middle;fontFamily=Helvetica;fontSize=11;fontColor=default;labelBackgroundColor=default;endArrow=none;" edge="1" parent="1" source="0IzMQxdubGWwQOAFh3HP-60" target="0IzMQxdubGWwQOAFh3HP-35">
          <mxGeometry relative="1" as="geometry" />
        </mxCell>
        <mxCell id="0IzMQxdubGWwQOAFh3HP-104" style="edgeStyle=none;shape=connector;rounded=0;orthogonalLoop=1;jettySize=auto;html=1;exitX=1;exitY=0.5;exitDx=0;exitDy=0;entryX=0;entryY=0.5;entryDx=0;entryDy=0;strokeColor=default;align=center;verticalAlign=middle;fontFamily=Helvetica;fontSize=11;fontColor=default;labelBackgroundColor=default;endArrow=none;" edge="1" parent="1" source="0IzMQxdubGWwQOAFh3HP-60" target="0IzMQxdubGWwQOAFh3HP-36">
          <mxGeometry relative="1" as="geometry" />
        </mxCell>
        <mxCell id="0IzMQxdubGWwQOAFh3HP-60" value="" style="ellipse;whiteSpace=wrap;html=1;aspect=fixed;" vertex="1" parent="1">
          <mxGeometry x="582" y="413.25" width="30" height="30" as="geometry" />
        </mxCell>
        <mxCell id="0IzMQxdubGWwQOAFh3HP-61" value="" style="endArrow=none;html=1;rounded=0;exitX=0.382;exitY=0.991;exitDx=0;exitDy=0;exitPerimeter=0;entryX=0;entryY=0.5;entryDx=0;entryDy=0;endFill=0;" edge="1" parent="1" source="0IzMQxdubGWwQOAFh3HP-58" target="0IzMQxdubGWwQOAFh3HP-59">
          <mxGeometry width="50" height="50" relative="1" as="geometry">
            <mxPoint x="472" y="467" as="sourcePoint" />
            <mxPoint x="522" y="417" as="targetPoint" />
          </mxGeometry>
        </mxCell>
        <mxCell id="0IzMQxdubGWwQOAFh3HP-62" value="" style="endArrow=none;html=1;rounded=0;exitX=0.601;exitY=-0.009;exitDx=0;exitDy=0;exitPerimeter=0;entryX=0;entryY=0.5;entryDx=0;entryDy=0;endFill=0;" edge="1" parent="1" source="0IzMQxdubGWwQOAFh3HP-57" target="0IzMQxdubGWwQOAFh3HP-60">
          <mxGeometry width="50" height="50" relative="1" as="geometry">
            <mxPoint x="532" y="384" as="sourcePoint" />
            <mxPoint x="592" y="393" as="targetPoint" />
          </mxGeometry>
        </mxCell>
        <mxCell id="0IzMQxdubGWwQOAFh3HP-63" value="" style="shape=parallelogram;perimeter=parallelogramPerimeter;whiteSpace=wrap;html=1;fixedSize=1;size=10;flipH=0;flipV=1;direction=south;" vertex="1" parent="1">
          <mxGeometry x="492" y="492" width="30" height="45" as="geometry" />
        </mxCell>
        <mxCell id="0IzMQxdubGWwQOAFh3HP-64" value="" style="shape=parallelogram;perimeter=parallelogramPerimeter;whiteSpace=wrap;html=1;fixedSize=1;size=10;flipH=0;flipV=1;direction=north;" vertex="1" parent="1">
          <mxGeometry x="492" y="447" width="30" height="45" as="geometry" />
        </mxCell>
        <mxCell id="0IzMQxdubGWwQOAFh3HP-81" style="edgeStyle=none;shape=connector;rounded=0;orthogonalLoop=1;jettySize=auto;html=1;exitX=1;exitY=0.5;exitDx=0;exitDy=0;strokeColor=default;align=center;verticalAlign=middle;fontFamily=Helvetica;fontSize=11;fontColor=default;labelBackgroundColor=default;endArrow=none;entryX=0;entryY=0.5;entryDx=0;entryDy=0;" edge="1" parent="1" source="0IzMQxdubGWwQOAFh3HP-65" target="0IzMQxdubGWwQOAFh3HP-33">
          <mxGeometry relative="1" as="geometry">
            <mxPoint x="672" y="293" as="targetPoint" />
          </mxGeometry>
        </mxCell>
        <mxCell id="0IzMQxdubGWwQOAFh3HP-105" style="edgeStyle=none;shape=connector;rounded=0;orthogonalLoop=1;jettySize=auto;html=1;exitX=1;exitY=0.5;exitDx=0;exitDy=0;entryX=0;entryY=0.5;entryDx=0;entryDy=0;strokeColor=default;align=center;verticalAlign=middle;fontFamily=Helvetica;fontSize=11;fontColor=default;labelBackgroundColor=default;endArrow=none;" edge="1" parent="1" source="0IzMQxdubGWwQOAFh3HP-65" target="0IzMQxdubGWwQOAFh3HP-34">
          <mxGeometry relative="1" as="geometry" />
        </mxCell>
        <mxCell id="0IzMQxdubGWwQOAFh3HP-106" style="edgeStyle=none;shape=connector;rounded=0;orthogonalLoop=1;jettySize=auto;html=1;exitX=1;exitY=0.5;exitDx=0;exitDy=0;entryX=0;entryY=0.5;entryDx=0;entryDy=0;strokeColor=default;align=center;verticalAlign=middle;fontFamily=Helvetica;fontSize=11;fontColor=default;labelBackgroundColor=default;endArrow=none;" edge="1" parent="1" source="0IzMQxdubGWwQOAFh3HP-65" target="0IzMQxdubGWwQOAFh3HP-35">
          <mxGeometry relative="1" as="geometry" />
        </mxCell>
        <mxCell id="0IzMQxdubGWwQOAFh3HP-107" style="edgeStyle=none;shape=connector;rounded=0;orthogonalLoop=1;jettySize=auto;html=1;exitX=1;exitY=0.5;exitDx=0;exitDy=0;entryX=0;entryY=0.5;entryDx=0;entryDy=0;strokeColor=default;align=center;verticalAlign=middle;fontFamily=Helvetica;fontSize=11;fontColor=default;labelBackgroundColor=default;endArrow=none;" edge="1" parent="1" source="0IzMQxdubGWwQOAFh3HP-65" target="0IzMQxdubGWwQOAFh3HP-36">
          <mxGeometry relative="1" as="geometry" />
        </mxCell>
        <mxCell id="0IzMQxdubGWwQOAFh3HP-65" value="" style="ellipse;whiteSpace=wrap;html=1;aspect=fixed;" vertex="1" parent="1">
          <mxGeometry x="582" y="458.25" width="30" height="30" as="geometry" />
        </mxCell>
        <mxCell id="0IzMQxdubGWwQOAFh3HP-82" style="edgeStyle=none;shape=connector;rounded=0;orthogonalLoop=1;jettySize=auto;html=1;exitX=1;exitY=0.5;exitDx=0;exitDy=0;strokeColor=default;align=center;verticalAlign=middle;fontFamily=Helvetica;fontSize=11;fontColor=default;labelBackgroundColor=default;endArrow=none;entryX=0;entryY=0.5;entryDx=0;entryDy=0;" edge="1" parent="1" source="0IzMQxdubGWwQOAFh3HP-66" target="0IzMQxdubGWwQOAFh3HP-33">
          <mxGeometry relative="1" as="geometry">
            <mxPoint x="672" y="293" as="targetPoint" />
          </mxGeometry>
        </mxCell>
        <mxCell id="0IzMQxdubGWwQOAFh3HP-108" style="edgeStyle=none;shape=connector;rounded=0;orthogonalLoop=1;jettySize=auto;html=1;exitX=1;exitY=0.5;exitDx=0;exitDy=0;entryX=0;entryY=0.5;entryDx=0;entryDy=0;strokeColor=default;align=center;verticalAlign=middle;fontFamily=Helvetica;fontSize=11;fontColor=default;labelBackgroundColor=default;endArrow=none;" edge="1" parent="1" source="0IzMQxdubGWwQOAFh3HP-66" target="0IzMQxdubGWwQOAFh3HP-34">
          <mxGeometry relative="1" as="geometry" />
        </mxCell>
        <mxCell id="0IzMQxdubGWwQOAFh3HP-109" style="edgeStyle=none;shape=connector;rounded=0;orthogonalLoop=1;jettySize=auto;html=1;exitX=1;exitY=0.5;exitDx=0;exitDy=0;entryX=0;entryY=0.5;entryDx=0;entryDy=0;strokeColor=default;align=center;verticalAlign=middle;fontFamily=Helvetica;fontSize=11;fontColor=default;labelBackgroundColor=default;endArrow=none;" edge="1" parent="1" source="0IzMQxdubGWwQOAFh3HP-66" target="0IzMQxdubGWwQOAFh3HP-35">
          <mxGeometry relative="1" as="geometry" />
        </mxCell>
        <mxCell id="0IzMQxdubGWwQOAFh3HP-110" style="edgeStyle=none;shape=connector;rounded=0;orthogonalLoop=1;jettySize=auto;html=1;exitX=1;exitY=0.5;exitDx=0;exitDy=0;entryX=0;entryY=0.5;entryDx=0;entryDy=0;strokeColor=default;align=center;verticalAlign=middle;fontFamily=Helvetica;fontSize=11;fontColor=default;labelBackgroundColor=default;endArrow=none;" edge="1" parent="1" source="0IzMQxdubGWwQOAFh3HP-66" target="0IzMQxdubGWwQOAFh3HP-36">
          <mxGeometry relative="1" as="geometry" />
        </mxCell>
        <mxCell id="0IzMQxdubGWwQOAFh3HP-66" value="" style="ellipse;whiteSpace=wrap;html=1;aspect=fixed;" vertex="1" parent="1">
          <mxGeometry x="582" y="503.25" width="30" height="30" as="geometry" />
        </mxCell>
        <mxCell id="0IzMQxdubGWwQOAFh3HP-67" value="" style="endArrow=none;html=1;rounded=0;exitX=0.382;exitY=0.991;exitDx=0;exitDy=0;exitPerimeter=0;entryX=0;entryY=0.5;entryDx=0;entryDy=0;endFill=0;" edge="1" parent="1" source="0IzMQxdubGWwQOAFh3HP-64" target="0IzMQxdubGWwQOAFh3HP-65">
          <mxGeometry width="50" height="50" relative="1" as="geometry">
            <mxPoint x="472" y="557" as="sourcePoint" />
            <mxPoint x="522" y="507" as="targetPoint" />
          </mxGeometry>
        </mxCell>
        <mxCell id="0IzMQxdubGWwQOAFh3HP-68" value="" style="endArrow=none;html=1;rounded=0;exitX=0.601;exitY=-0.009;exitDx=0;exitDy=0;exitPerimeter=0;entryX=0;entryY=0.5;entryDx=0;entryDy=0;endFill=0;" edge="1" parent="1" source="0IzMQxdubGWwQOAFh3HP-63" target="0IzMQxdubGWwQOAFh3HP-66">
          <mxGeometry width="50" height="50" relative="1" as="geometry">
            <mxPoint x="532" y="474" as="sourcePoint" />
            <mxPoint x="592" y="483" as="targetPoint" />
          </mxGeometry>
        </mxCell>
        <mxCell id="0IzMQxdubGWwQOAFh3HP-70" value="" style="endArrow=none;html=1;rounded=0;exitX=1;exitY=0.5;exitDx=0;exitDy=0;entryX=0;entryY=0.5;entryDx=0;entryDy=0;" edge="1" parent="1" source="0IzMQxdubGWwQOAFh3HP-25" target="0IzMQxdubGWwQOAFh3HP-33">
          <mxGeometry width="50" height="50" relative="1" as="geometry">
            <mxPoint x="592" y="193" as="sourcePoint" />
            <mxPoint x="642" y="143" as="targetPoint" />
          </mxGeometry>
        </mxCell>
        <mxCell id="0IzMQxdubGWwQOAFh3HP-72" value="" style="endArrow=none;dashed=1;html=1;dashPattern=1 3;strokeWidth=2;rounded=0;" edge="1" parent="1">
          <mxGeometry width="50" height="50" relative="1" as="geometry">
            <mxPoint x="422" y="313" as="sourcePoint" />
            <mxPoint x="482" y="183" as="targetPoint" />
          </mxGeometry>
        </mxCell>
        <mxCell id="0IzMQxdubGWwQOAFh3HP-73" value="" style="endArrow=none;dashed=1;html=1;dashPattern=1 3;strokeWidth=2;rounded=0;exitX=0;exitY=0;exitDx=20;exitDy=120;exitPerimeter=0;" edge="1" parent="1" source="0IzMQxdubGWwQOAFh3HP-12">
          <mxGeometry width="50" height="50" relative="1" as="geometry">
            <mxPoint x="432" y="323" as="sourcePoint" />
            <mxPoint x="482" y="543" as="targetPoint" />
          </mxGeometry>
        </mxCell>
        <mxCell id="0IzMQxdubGWwQOAFh3HP-74" value="" style="endArrow=none;html=1;rounded=0;exitX=1;exitY=0.5;exitDx=0;exitDy=0;entryX=0;entryY=0.5;entryDx=0;entryDy=0;" edge="1" parent="1" source="0IzMQxdubGWwQOAFh3HP-26" target="0IzMQxdubGWwQOAFh3HP-33">
          <mxGeometry width="50" height="50" relative="1" as="geometry">
            <mxPoint x="622" y="213" as="sourcePoint" />
            <mxPoint x="686" y="295" as="targetPoint" />
          </mxGeometry>
        </mxCell>
        <mxCell id="0IzMQxdubGWwQOAFh3HP-75" value="" style="endArrow=none;html=1;rounded=0;exitX=1;exitY=0.5;exitDx=0;exitDy=0;entryX=0;entryY=0.5;entryDx=0;entryDy=0;" edge="1" parent="1" source="0IzMQxdubGWwQOAFh3HP-53" target="0IzMQxdubGWwQOAFh3HP-33">
          <mxGeometry width="50" height="50" relative="1" as="geometry">
            <mxPoint x="622" y="258" as="sourcePoint" />
            <mxPoint x="682" y="306" as="targetPoint" />
          </mxGeometry>
        </mxCell>
        <mxCell id="0IzMQxdubGWwQOAFh3HP-80" style="edgeStyle=none;shape=connector;rounded=0;orthogonalLoop=1;jettySize=auto;html=1;exitX=1;exitY=0.5;exitDx=0;exitDy=0;entryX=0;entryY=0.5;entryDx=0;entryDy=0;strokeColor=default;align=center;verticalAlign=middle;fontFamily=Helvetica;fontSize=11;fontColor=default;labelBackgroundColor=default;endArrow=none;" edge="1" parent="1" source="0IzMQxdubGWwQOAFh3HP-60" target="0IzMQxdubGWwQOAFh3HP-33">
          <mxGeometry relative="1" as="geometry" />
        </mxCell>
        <mxCell id="0IzMQxdubGWwQOAFh3HP-93" style="edgeStyle=none;shape=connector;rounded=0;orthogonalLoop=1;jettySize=auto;html=1;exitX=1;exitY=0.5;exitDx=0;exitDy=0;entryX=0;entryY=0.5;entryDx=0;entryDy=0;strokeColor=default;align=center;verticalAlign=middle;fontFamily=Helvetica;fontSize=11;fontColor=default;labelBackgroundColor=default;endArrow=none;" edge="1" parent="1" source="0IzMQxdubGWwQOAFh3HP-53" target="0IzMQxdubGWwQOAFh3HP-34">
          <mxGeometry relative="1" as="geometry" />
        </mxCell>
        <mxCell id="0IzMQxdubGWwQOAFh3HP-123" value="" style="endArrow=none;dashed=1;html=1;dashPattern=1 3;strokeWidth=2;rounded=0;strokeColor=default;align=center;verticalAlign=middle;fontFamily=Helvetica;fontSize=11;fontColor=default;labelBackgroundColor=default;exitX=1;exitY=0.5;exitDx=0;exitDy=0;" edge="1" parent="1" source="0IzMQxdubGWwQOAFh3HP-41">
          <mxGeometry width="50" height="50" relative="1" as="geometry">
            <mxPoint x="822" y="373" as="sourcePoint" />
            <mxPoint x="812" y="318" as="targetPoint" />
          </mxGeometry>
        </mxCell>
        <mxCell id="0IzMQxdubGWwQOAFh3HP-124" value="" style="endArrow=none;dashed=1;html=1;dashPattern=1 3;strokeWidth=2;rounded=0;strokeColor=default;align=center;verticalAlign=middle;fontFamily=Helvetica;fontSize=11;fontColor=default;labelBackgroundColor=default;exitX=1;exitY=0.5;exitDx=0;exitDy=0;" edge="1" parent="1" source="0IzMQxdubGWwQOAFh3HP-38">
          <mxGeometry width="50" height="50" relative="1" as="geometry">
            <mxPoint x="792" y="328" as="sourcePoint" />
            <mxPoint x="812" y="359" as="targetPoint" />
          </mxGeometry>
        </mxCell>
        <mxCell id="0IzMQxdubGWwQOAFh3HP-125" value="" style="endArrow=none;dashed=1;html=1;dashPattern=1 3;strokeWidth=2;rounded=0;strokeColor=default;align=center;verticalAlign=middle;fontFamily=Helvetica;fontSize=11;fontColor=default;labelBackgroundColor=default;exitX=1;exitY=0.5;exitDx=0;exitDy=0;" edge="1" parent="1" source="0IzMQxdubGWwQOAFh3HP-39">
          <mxGeometry width="50" height="50" relative="1" as="geometry">
            <mxPoint x="792" y="369" as="sourcePoint" />
            <mxPoint x="812" y="398" as="targetPoint" />
          </mxGeometry>
        </mxCell>
        <mxCell id="0IzMQxdubGWwQOAFh3HP-126" value="" style="shape=curlyBracket;whiteSpace=wrap;html=1;rounded=1;labelPosition=left;verticalLabelPosition=middle;align=right;verticalAlign=middle;fontFamily=Helvetica;fontSize=11;fontColor=default;labelBackgroundColor=default;direction=south;size=0.5;" vertex="1" parent="1">
          <mxGeometry x="172" y="140" width="40" height="10" as="geometry" />
        </mxCell>
        <mxCell id="0IzMQxdubGWwQOAFh3HP-127" value="" style="shape=curlyBracket;whiteSpace=wrap;html=1;rounded=1;labelPosition=left;verticalLabelPosition=middle;align=right;verticalAlign=middle;fontFamily=Helvetica;fontSize=11;fontColor=default;labelBackgroundColor=default;direction=south;size=0.5;" vertex="1" parent="1">
          <mxGeometry x="242" y="191.5" width="40" height="10" as="geometry" />
        </mxCell>
        <mxCell id="0IzMQxdubGWwQOAFh3HP-131" value="" style="shape=curlyBracket;whiteSpace=wrap;html=1;rounded=1;labelPosition=left;verticalLabelPosition=middle;align=right;verticalAlign=middle;fontFamily=Helvetica;fontSize=11;fontColor=default;labelBackgroundColor=default;direction=south;size=0.5;" vertex="1" parent="1">
          <mxGeometry x="332" y="229.25" width="40" height="10" as="geometry" />
        </mxCell>
        <mxCell id="0IzMQxdubGWwQOAFh3HP-132" value="Dropout (0.05)&lt;br&gt;Max Pool (2x2)" style="text;html=1;align=center;verticalAlign=middle;resizable=0;points=[];autosize=1;strokeColor=none;fillColor=none;fontFamily=Helvetica;fontSize=11;fontColor=default;labelBackgroundColor=default;" vertex="1" parent="1">
          <mxGeometry x="142" y="100" width="100" height="40" as="geometry" />
        </mxCell>
        <mxCell id="0IzMQxdubGWwQOAFh3HP-135" value="Conv - ReLU&lt;br&gt;(3x3)" style="text;html=1;align=center;verticalAlign=middle;resizable=0;points=[];autosize=1;strokeColor=none;fillColor=none;fontFamily=Helvetica;fontSize=11;fontColor=default;labelBackgroundColor=default;" vertex="1" parent="1">
          <mxGeometry x="32" y="563" width="90" height="40" as="geometry" />
        </mxCell>
        <mxCell id="0IzMQxdubGWwQOAFh3HP-136" value="Conv - ReLU&lt;br&gt;(3x3)" style="text;html=1;align=center;verticalAlign=middle;resizable=0;points=[];autosize=1;strokeColor=none;fillColor=none;fontFamily=Helvetica;fontSize=11;fontColor=default;labelBackgroundColor=default;" vertex="1" parent="1">
          <mxGeometry x="132" y="520" width="90" height="40" as="geometry" />
        </mxCell>
        <mxCell id="0IzMQxdubGWwQOAFh3HP-137" value="Conv - ReLU&lt;br&gt;(3x3)" style="text;html=1;align=center;verticalAlign=middle;resizable=0;points=[];autosize=1;strokeColor=none;fillColor=none;fontFamily=Helvetica;fontSize=11;fontColor=default;labelBackgroundColor=default;" vertex="1" parent="1">
          <mxGeometry x="222" y="480" width="90" height="40" as="geometry" />
        </mxCell>
        <mxCell id="0IzMQxdubGWwQOAFh3HP-138" value="Conv - ReLU&lt;br&gt;(3x3)" style="text;html=1;align=center;verticalAlign=middle;resizable=0;points=[];autosize=1;strokeColor=none;fillColor=none;fontFamily=Helvetica;fontSize=11;fontColor=default;labelBackgroundColor=default;" vertex="1" parent="1">
          <mxGeometry x="332" y="447" width="90" height="40" as="geometry" />
        </mxCell>
        <mxCell id="0IzMQxdubGWwQOAFh3HP-139" value="256x256x32" style="text;html=1;align=center;verticalAlign=middle;resizable=0;points=[];autosize=1;strokeColor=none;fillColor=none;fontFamily=Helvetica;fontSize=11;fontColor=default;labelBackgroundColor=default;" vertex="1" parent="1">
          <mxGeometry x="37" y="600" width="80" height="30" as="geometry" />
        </mxCell>
        <mxCell id="0IzMQxdubGWwQOAFh3HP-140" value="254x254x64" style="text;html=1;align=center;verticalAlign=middle;resizable=0;points=[];autosize=1;strokeColor=none;fillColor=none;fontFamily=Helvetica;fontSize=11;fontColor=default;labelBackgroundColor=default;" vertex="1" parent="1">
          <mxGeometry x="137" y="560" width="80" height="30" as="geometry" />
        </mxCell>
        <mxCell id="0IzMQxdubGWwQOAFh3HP-141" value="252x252x96" style="text;html=1;align=center;verticalAlign=middle;resizable=0;points=[];autosize=1;strokeColor=none;fillColor=none;fontFamily=Helvetica;fontSize=11;fontColor=default;labelBackgroundColor=default;" vertex="1" parent="1">
          <mxGeometry x="227" y="520" width="80" height="30" as="geometry" />
        </mxCell>
        <mxCell id="0IzMQxdubGWwQOAFh3HP-142" value="250x250x128" style="text;html=1;align=center;verticalAlign=middle;resizable=0;points=[];autosize=1;strokeColor=none;fillColor=none;fontFamily=Helvetica;fontSize=11;fontColor=default;labelBackgroundColor=default;" vertex="1" parent="1">
          <mxGeometry x="332" y="487" width="90" height="30" as="geometry" />
        </mxCell>
        <mxCell id="0IzMQxdubGWwQOAFh3HP-143" value="Flatten" style="text;html=1;align=center;verticalAlign=middle;resizable=0;points=[];autosize=1;strokeColor=none;fillColor=none;fontFamily=Helvetica;fontSize=11;fontColor=default;labelBackgroundColor=default;" vertex="1" parent="1">
          <mxGeometry x="427" y="537" width="60" height="30" as="geometry" />
        </mxCell>
        <mxCell id="0IzMQxdubGWwQOAFh3HP-144" value="Dense - ReLU&lt;br&gt;(128n)" style="text;html=1;align=center;verticalAlign=middle;resizable=0;points=[];autosize=1;strokeColor=none;fillColor=none;fontFamily=Helvetica;fontSize=11;fontColor=default;labelBackgroundColor=default;" vertex="1" parent="1">
          <mxGeometry x="552" y="550" width="90" height="40" as="geometry" />
        </mxCell>
        <mxCell id="0IzMQxdubGWwQOAFh3HP-145" value="Dense - ReLU&lt;br&gt;(64n)" style="text;html=1;align=center;verticalAlign=middle;resizable=0;points=[];autosize=1;strokeColor=none;fillColor=none;fontFamily=Helvetica;fontSize=11;fontColor=default;labelBackgroundColor=default;" vertex="1" parent="1">
          <mxGeometry x="642" y="463.25" width="90" height="40" as="geometry" />
        </mxCell>
        <mxCell id="0IzMQxdubGWwQOAFh3HP-146" value="Dense - softmax&lt;br&gt;(32n)" style="text;html=1;align=center;verticalAlign=middle;resizable=0;points=[];autosize=1;strokeColor=none;fillColor=none;fontFamily=Helvetica;fontSize=11;fontColor=default;labelBackgroundColor=default;" vertex="1" parent="1">
          <mxGeometry x="717" y="430" width="100" height="40" as="geometry" />
        </mxCell>
        <mxCell id="0IzMQxdubGWwQOAFh3HP-147" value="Dropout (0.05)&lt;br&gt;Max Pool (2x2)" style="text;html=1;align=center;verticalAlign=middle;resizable=0;points=[];autosize=1;strokeColor=none;fillColor=none;fontFamily=Helvetica;fontSize=11;fontColor=default;labelBackgroundColor=default;" vertex="1" parent="1">
          <mxGeometry x="214" y="151.5" width="100" height="40" as="geometry" />
        </mxCell>
        <mxCell id="0IzMQxdubGWwQOAFh3HP-148" value="Dropout (0.05)&lt;br&gt;Max Pool (2x2)" style="text;html=1;align=center;verticalAlign=middle;resizable=0;points=[];autosize=1;strokeColor=none;fillColor=none;fontFamily=Helvetica;fontSize=11;fontColor=default;labelBackgroundColor=default;" vertex="1" parent="1">
          <mxGeometry x="302" y="189.25" width="100" height="40" as="geometry" />
        </mxCell>
      </root>
    </mxGraphModel>
  </diagram>
</mxfile>
